<mxfile host="app.diagrams.net" agent="Mozilla/5.0 (Windows NT 10.0; Win64; x64) AppleWebKit/537.36 (KHTML, like Gecko) Chrome/141.0.0.0 Safari/537.36" version="28.2.5">
  <diagram name="Página-1" id="s8RFKE8Slnl_227uzsYh">
    <mxGraphModel dx="1426" dy="777" grid="1" gridSize="10" guides="1" tooltips="1" connect="1" arrows="1" fold="1" page="1" pageScale="1" pageWidth="827" pageHeight="1169" math="0" shadow="0">
      <root>
        <mxCell id="0" />
        <mxCell id="1" parent="0" />
        <mxCell id="7XiOjSr3929bPCMhmyme-3" value="" style="edgeStyle=orthogonalEdgeStyle;rounded=0;orthogonalLoop=1;jettySize=auto;html=1;" edge="1" parent="1" source="7XiOjSr3929bPCMhmyme-1" target="7XiOjSr3929bPCMhmyme-2">
          <mxGeometry relative="1" as="geometry" />
        </mxCell>
        <mxCell id="7XiOjSr3929bPCMhmyme-1" value="Incio" style="ellipse;whiteSpace=wrap;html=1;" vertex="1" parent="1">
          <mxGeometry width="80" height="80" as="geometry" />
        </mxCell>
        <mxCell id="7XiOjSr3929bPCMhmyme-5" value="" style="edgeStyle=orthogonalEdgeStyle;rounded=0;orthogonalLoop=1;jettySize=auto;html=1;" edge="1" parent="1" source="7XiOjSr3929bPCMhmyme-2" target="7XiOjSr3929bPCMhmyme-4">
          <mxGeometry relative="1" as="geometry" />
        </mxCell>
        <mxCell id="7XiOjSr3929bPCMhmyme-2" value="Sandes = 1&lt;br&gt;Bolos = 0.8&lt;div&gt;Refrigerantes = 1.5&lt;/div&gt;&lt;div&gt;Café = 0.6&lt;/div&gt;&lt;div&gt;Lucro = 0&lt;/div&gt;" style="rounded=0;whiteSpace=wrap;html=1;" vertex="1" parent="1">
          <mxGeometry x="120" y="2.5" width="120" height="75" as="geometry" />
        </mxCell>
        <mxCell id="7XiOjSr3929bPCMhmyme-7" value="" style="edgeStyle=orthogonalEdgeStyle;rounded=0;orthogonalLoop=1;jettySize=auto;html=1;" edge="1" parent="1" source="7XiOjSr3929bPCMhmyme-4" target="7XiOjSr3929bPCMhmyme-6">
          <mxGeometry relative="1" as="geometry" />
        </mxCell>
        <mxCell id="7XiOjSr3929bPCMhmyme-4" value="Ler PS,PB, PR,PC" style="shape=parallelogram;perimeter=parallelogramPerimeter;whiteSpace=wrap;html=1;fixedSize=1;rounded=0;" vertex="1" parent="1">
          <mxGeometry x="280" y="10" width="210" height="60" as="geometry" />
        </mxCell>
        <mxCell id="7XiOjSr3929bPCMhmyme-13" style="edgeStyle=orthogonalEdgeStyle;rounded=0;orthogonalLoop=1;jettySize=auto;html=1;entryX=0.5;entryY=0;entryDx=0;entryDy=0;" edge="1" parent="1" source="7XiOjSr3929bPCMhmyme-6" target="7XiOjSr3929bPCMhmyme-12">
          <mxGeometry relative="1" as="geometry">
            <Array as="points">
              <mxPoint x="780" y="40" />
              <mxPoint x="780" y="95" />
              <mxPoint x="704" y="95" />
            </Array>
          </mxGeometry>
        </mxCell>
        <mxCell id="7XiOjSr3929bPCMhmyme-6" value="Ler SV, BV, RV, CV&amp;nbsp;" style="shape=parallelogram;perimeter=parallelogramPerimeter;whiteSpace=wrap;html=1;fixedSize=1;rounded=0;" vertex="1" parent="1">
          <mxGeometry x="530" y="10" width="240" height="60" as="geometry" />
        </mxCell>
        <mxCell id="7XiOjSr3929bPCMhmyme-15" value="" style="edgeStyle=orthogonalEdgeStyle;rounded=0;orthogonalLoop=1;jettySize=auto;html=1;" edge="1" parent="1" source="7XiOjSr3929bPCMhmyme-12" target="7XiOjSr3929bPCMhmyme-14">
          <mxGeometry relative="1" as="geometry" />
        </mxCell>
        <mxCell id="7XiOjSr3929bPCMhmyme-12" value="Lucro = (PS-Sandes)*SV+(PB-Bolos)*BV+(PR-Refrigerantes)*RV+(PC-Café)*CV" style="rounded=0;whiteSpace=wrap;html=1;" vertex="1" parent="1">
          <mxGeometry x="580" y="120" width="247" height="60" as="geometry" />
        </mxCell>
        <mxCell id="7XiOjSr3929bPCMhmyme-17" value="" style="edgeStyle=orthogonalEdgeStyle;rounded=0;orthogonalLoop=1;jettySize=auto;html=1;" edge="1" parent="1" source="7XiOjSr3929bPCMhmyme-14" target="7XiOjSr3929bPCMhmyme-16">
          <mxGeometry relative="1" as="geometry" />
        </mxCell>
        <mxCell id="7XiOjSr3929bPCMhmyme-14" value="Escrever &quot;O bar Fim de Tarde teve um lucro de&quot;, Lucro&amp;lt; &quot;€&quot;." style="shape=parallelogram;perimeter=parallelogramPerimeter;whiteSpace=wrap;html=1;fixedSize=1;" vertex="1" parent="1">
          <mxGeometry x="555.56" y="220" width="295.88" height="60" as="geometry" />
        </mxCell>
        <mxCell id="7XiOjSr3929bPCMhmyme-16" value="Fim" style="ellipse;whiteSpace=wrap;html=1;" vertex="1" parent="1">
          <mxGeometry x="663.5" y="300" width="80" height="80" as="geometry" />
        </mxCell>
      </root>
    </mxGraphModel>
  </diagram>
</mxfile>
